<svg width="156" height="118" viewBox="0 0 156 118" fill="none" xmlns="http://www.w3.org/2000/svg">
<path d="M24.4982 46.9388C34.7352 46.9388 44.971 46.9388 55.2079 46.9388C55.368 46.9388 55.5281 46.9388 55.6882 46.9388C55.6927 46.9388 55.6984 46.9388 55.7029 46.9388C55.7109 46.9388 55.7063 46.9456 55.7063 46.9502C55.7063 46.9604 55.7063 46.9707 55.7063 46.9798C55.7063 47.0003 55.7063 47.0197 55.7063 47.0402C55.7063 47.08 55.7063 47.1199 55.7063 47.1609C55.7063 47.2406 55.7063 47.3215 55.7063 47.4012C55.7063 47.7224 55.7063 48.0424 55.7063 48.3636C55.7063 49.0048 55.7063 49.6471 55.7063 50.2883C55.7063 50.3281 55.7063 50.368 55.7063 50.409C55.7063 50.4101 55.7063 50.4113 55.7063 50.4124C55.7063 50.4136 55.7086 50.4158 55.7063 50.4158C55.704 50.4158 55.7018 50.4158 55.6984 50.4158C55.6938 50.4158 55.6882 50.4158 55.6836 50.4158C55.6734 50.4158 55.6632 50.4158 55.6541 50.4158C55.6337 50.4158 55.6143 50.4158 55.5939 50.4158C55.5144 50.4158 55.4338 50.4158 55.3543 50.4158C55.1942 50.4158 55.0342 50.4158 54.8741 50.4158C54.5539 50.4158 54.2348 50.4158 53.9146 50.4158C53.2754 50.4158 52.635 50.4158 51.9958 50.4158C49.4365 50.4158 46.8773 50.4158 44.3181 50.4158C39.1996 50.4158 34.0812 50.4158 28.9627 50.4158C27.6831 50.4158 26.4035 50.4158 25.1239 50.4158C24.9638 50.4158 24.8037 50.4158 24.6436 50.4158C24.4926 50.4158 24.3427 50.4158 24.1917 50.4295C23.8772 50.4568 23.5808 50.5252 23.2845 50.6356C22.6555 50.8714 22.1082 51.2848 21.7085 51.8258C20.9433 52.8633 20.8138 54.2391 21.3713 55.4019C21.9492 56.6068 23.1596 57.371 24.4926 57.3722C27.0518 57.3744 29.611 57.3722 32.1691 57.3722C34.7284 57.3722 37.2876 57.3722 39.8468 57.3722C42.406 57.3722 44.9653 57.3722 47.5245 57.3722C47.8447 57.3722 48.1637 57.3722 48.4839 57.3722C48.8257 57.3722 49.046 57.3688 49.3866 57.3995C50.0156 57.4553 50.6094 57.5908 51.1998 57.8129C52.4579 58.2856 53.5513 59.1135 54.3495 60.1978C55.8778 62.274 56.1332 65.0255 55.016 67.35C54.4301 68.5686 53.5025 69.589 52.3466 70.2872C51.2657 70.9398 50.0315 71.2837 48.7689 71.2837C38.532 71.2837 28.2962 71.2837 18.0593 71.2837C17.8992 71.2837 17.7391 71.2837 17.579 71.2837C17.5745 71.2837 17.5688 71.2837 17.5643 71.2837C17.5563 71.2837 17.5609 71.2769 17.5609 71.2723C17.5609 71.2621 17.5609 71.2518 17.5609 71.2427C17.5609 71.2222 17.5609 71.2028 17.5609 71.1823C17.5609 71.1425 17.5609 71.1026 17.5609 71.0616C17.5609 70.9819 17.5609 70.901 17.5609 70.8213C17.5609 70.5001 17.5609 70.1801 17.5609 69.859C17.5609 69.2178 17.5609 68.5754 17.5609 67.9342C17.5609 67.8944 17.5609 67.8545 17.5609 67.8135C17.5609 67.8124 17.5609 67.8112 17.5609 67.8101C17.5609 67.809 17.5586 67.8067 17.5609 67.8067C17.5631 67.8067 17.5654 67.8067 17.5688 67.8067C17.5733 67.8067 17.579 67.8067 17.5836 67.8067C17.5938 67.8067 17.604 67.8067 17.6131 67.8067C17.6335 67.8067 17.6528 67.8067 17.6733 67.8067C17.7527 67.8067 17.8334 67.8067 17.9128 67.8067C18.0729 67.8067 18.233 67.8067 18.3931 67.8067C18.7133 67.8067 19.0324 67.8067 19.3525 67.8067C19.9918 67.8067 20.6322 67.8067 21.2714 67.8067C23.8306 67.8067 26.3899 67.8067 28.9491 67.8067C34.0675 67.8067 39.186 67.8067 44.3045 67.8067C45.5841 67.8067 46.8637 67.8067 48.1433 67.8067C48.3034 67.8067 48.4635 67.8067 48.6236 67.8067C48.7746 67.8067 48.9245 67.8067 49.0755 67.793C49.39 67.7657 49.6863 67.6973 49.9827 67.5869C50.6117 67.3511 51.159 66.9377 51.5586 66.3967C52.3239 65.3592 52.4533 63.9834 51.8959 62.8206C51.3179 61.6157 50.1076 60.8515 48.7746 60.8503C46.2154 60.8481 43.6561 60.8503 41.098 60.8503C38.5388 60.8503 35.9796 60.8503 33.4204 60.8503C30.8611 60.8503 28.3019 60.8503 25.7427 60.8503C25.4225 60.8503 25.1034 60.8503 24.7832 60.8503C24.4415 60.8503 24.2212 60.8538 23.8806 60.823C23.2516 60.7661 22.6577 60.6317 22.0673 60.4096C20.8093 59.937 19.7159 59.109 18.9177 58.0248C17.3894 55.9486 17.1339 53.197 18.2512 50.8725C18.8371 49.6539 19.7647 48.6335 20.9205 47.9353C22.0026 47.2828 23.2368 46.9388 24.4982 46.9388Z" fill="white"/>
<path d="M107.719 46.938C111.917 46.938 116.115 46.938 120.313 46.938C122.412 46.938 124.511 46.938 126.61 46.938C127.659 46.938 128.709 46.938 129.758 46.938C130.283 46.938 130.808 46.938 131.333 46.938C131.564 46.938 131.795 46.9369 132.026 46.938C132.095 46.938 132.166 46.9403 132.235 46.9426C134.769 47.0314 137.047 48.4949 138.187 50.767C138.464 51.3193 138.66 51.8842 138.785 52.4901C138.843 52.7748 138.884 53.0596 138.907 53.3488C138.918 53.4889 138.925 53.6279 138.927 53.768C138.929 53.9126 138.928 54.0584 138.928 54.203C138.928 54.4695 138.928 54.736 138.928 55.0036C138.928 59.2711 138.928 63.5396 138.928 67.807C138.928 68.9209 138.928 70.0347 138.928 71.1497C138.928 71.185 138.928 71.2191 138.928 71.2544C138.928 71.2636 138.928 71.2715 138.928 71.2806C138.928 71.2829 138.929 71.2863 138.926 71.2863C138.925 71.2863 138.924 71.2863 138.922 71.2863C138.918 71.2863 138.912 71.2863 138.908 71.2863C138.888 71.2863 138.868 71.2863 138.849 71.2863C138.809 71.2863 138.769 71.2863 138.729 71.2863C138.65 71.2863 138.57 71.2863 138.491 71.2863C138.332 71.2863 138.174 71.2863 138.015 71.2863C137.381 71.2863 136.746 71.2863 136.111 71.2863C135.952 71.2863 135.794 71.2863 135.635 71.2863C135.596 71.2863 135.556 71.2863 135.516 71.2863C135.506 71.2863 135.497 71.2863 135.487 71.2863C135.482 71.2863 135.476 71.2863 135.472 71.2863C135.47 71.2863 135.467 71.2863 135.464 71.2863C135.462 71.2863 135.461 71.2852 135.461 71.2829C135.461 71.2749 135.461 71.2681 135.461 71.2601C135.461 71.1406 135.461 71.021 135.461 70.9025C135.461 70.4253 135.461 69.9481 135.461 69.4698C135.461 67.5599 135.461 65.65 135.461 63.7401C135.461 61.8301 135.461 59.9202 135.461 58.0103C135.461 57.0559 135.461 56.1004 135.461 55.146C135.461 54.9068 135.461 54.6688 135.461 54.4296C135.461 54.2429 135.462 54.055 135.461 53.8682C135.459 53.7953 135.457 53.7224 135.451 53.6495C135.386 52.7213 134.954 51.8603 134.249 51.2544C133.895 50.9492 133.483 50.7203 133.038 50.5791C132.827 50.5119 132.616 50.4663 132.397 50.4413C132.294 50.4287 132.189 50.4219 132.085 50.4185C132.01 50.4162 131.934 50.4173 131.859 50.4173C131.747 50.4173 131.633 50.4173 131.521 50.4173C129.715 50.4173 127.911 50.4173 126.106 50.4173C125.88 50.4173 125.655 50.4173 125.429 50.4173C125.283 50.4173 125.135 50.4151 124.989 50.4185C124.884 50.4208 124.781 50.4276 124.676 50.439C124.458 50.4629 124.246 50.5073 124.036 50.5722C123.128 50.8524 122.375 51.4947 121.951 52.3489C121.754 52.7486 121.635 53.1826 121.599 53.6267C121.585 53.8135 121.589 54.0003 121.589 54.1871C121.589 54.9273 121.589 55.6688 121.589 56.409C121.589 57.8907 121.589 59.3713 121.589 60.853C121.589 63.5613 121.589 66.2695 121.589 68.9778C121.589 69.6555 121.589 70.332 121.589 71.0085C121.589 71.0927 121.589 71.1781 121.589 71.2624C121.589 71.2681 121.589 71.2727 121.589 71.2784C121.589 71.2818 121.593 71.2875 121.587 71.2875C121.583 71.2875 121.58 71.2875 121.577 71.2875C121.57 71.2875 121.564 71.2875 121.557 71.2875C121.545 71.2875 121.531 71.2875 121.519 71.2875C121.468 71.2875 121.415 71.2875 121.364 71.2875C121.261 71.2875 121.158 71.2875 121.055 71.2875C120.643 71.2875 120.23 71.2875 119.818 71.2875C119.406 71.2875 118.992 71.2875 118.58 71.2875C118.477 71.2875 118.374 71.2875 118.271 71.2875C118.245 71.2875 118.22 71.2875 118.194 71.2875C118.182 71.2875 118.168 71.2875 118.156 71.2875C118.149 71.2875 118.143 71.2875 118.136 71.2875C118.133 71.2875 118.13 71.2875 118.126 71.2875C118.125 71.2875 118.122 71.2886 118.122 71.2863C118.122 71.2806 118.122 71.2761 118.122 71.2704C118.122 71.1007 118.122 70.9321 118.122 70.7625C118.122 70.0848 118.122 69.4083 118.122 68.7318C118.122 66.0235 118.122 63.3153 118.122 60.607C118.122 59.1128 118.122 57.6185 118.122 56.1232C118.122 55.3806 118.122 54.6369 118.122 53.8944C118.122 53.7896 118.117 53.6848 118.107 53.5812C118.066 53.1313 117.938 52.694 117.73 52.292C117.288 51.4389 116.515 50.808 115.593 50.5483C115.381 50.488 115.168 50.4492 114.949 50.431C114.827 50.4208 114.703 50.4185 114.58 50.4185C114.125 50.4185 113.67 50.4185 113.214 50.4185C111.393 50.4185 109.572 50.4185 107.752 50.4185C107.298 50.4185 106.879 50.4914 106.454 50.6576C106.011 50.8319 105.609 51.095 105.273 51.431C104.618 52.0847 104.251 52.9696 104.251 53.8966C104.251 57.6174 104.251 61.337 104.251 65.0578C104.251 66.9176 104.251 68.7785 104.251 70.6383C104.251 70.7545 104.251 70.8706 104.251 70.9868C104.251 71.0449 104.251 71.103 104.251 71.1611C104.251 71.1907 104.251 71.2191 104.251 71.2488C104.251 71.2556 104.251 71.2636 104.251 71.2704C104.251 71.2738 104.251 71.2772 104.251 71.2818C104.251 71.2841 104.255 71.2875 104.25 71.2875C104.248 71.2875 104.246 71.2875 104.243 71.2875C104.205 71.2875 104.166 71.2875 104.128 71.2875C104.05 71.2875 103.973 71.2875 103.896 71.2875C103.742 71.2875 103.587 71.2875 103.433 71.2875C102.815 71.2875 102.196 71.2875 101.579 71.2875C101.424 71.2875 101.27 71.2875 101.115 71.2875C101.038 71.2875 100.961 71.2875 100.884 71.2875C100.864 71.2875 100.845 71.2875 100.826 71.2875C100.816 71.2875 100.806 71.2875 100.796 71.2875C100.794 71.2875 100.792 71.2875 100.789 71.2875C100.781 71.2875 100.785 71.2806 100.785 71.2761C100.785 71.259 100.785 71.2419 100.785 71.2248C100.785 71.0893 100.785 70.9538 100.785 70.8183C100.785 69.7329 100.785 68.6475 100.785 67.5633C100.785 63.2378 100.785 58.9112 100.785 54.5857C100.785 54.3454 100.784 54.1051 100.785 53.8659C100.785 53.7953 100.786 53.7258 100.789 53.6552C100.794 53.5128 100.804 53.3705 100.818 53.2281C100.846 52.9331 100.893 52.6439 100.959 52.3557C101.098 51.7407 101.311 51.1701 101.607 50.6144C102.22 49.4652 103.143 48.512 104.271 47.8628C105.32 47.2558 106.506 46.938 107.719 46.938Z" fill="white"/>
<path d="M66.1075 46.9388C72.4431 46.9388 78.7799 46.9388 85.1155 46.9388C87.3659 46.9388 89.6174 46.9388 91.8678 46.9388C92.993 46.9388 94.1182 46.9388 95.2434 46.9388C95.8066 46.9388 96.3686 46.9388 96.9318 46.9388C97.0022 46.9388 97.0726 46.9388 97.143 46.9388C97.1781 46.9388 97.2134 46.9388 97.2486 46.9388C97.2667 46.9388 97.2838 46.9388 97.3008 46.9388C97.3053 46.9388 97.3099 46.9388 97.3144 46.9388C97.3155 46.9388 97.3155 46.9388 97.3155 46.9399C97.3155 46.9411 97.3155 46.9411 97.3155 46.9422C97.3155 46.9548 97.3155 46.9684 97.3155 46.9809C97.3155 47.0071 97.3155 47.0322 97.3155 47.0584C97.3155 47.4684 97.3155 47.8795 97.3155 48.2895C97.3155 48.6995 97.3155 49.1107 97.3155 49.5207C97.3155 49.7257 97.3155 49.9307 97.3155 50.1368C97.3155 50.1881 97.3155 50.2393 97.3155 50.2906C97.3155 50.3168 97.3155 50.3418 97.3155 50.368C97.3155 50.3805 97.3155 50.3942 97.3155 50.4067C97.3155 50.4101 97.3155 50.4136 97.3155 50.4158V50.417C97.3155 50.4181 97.3144 50.417 97.3133 50.417C97.311 50.417 97.3087 50.417 97.3076 50.417C97.2996 50.417 97.2917 50.417 97.2837 50.417C97.2678 50.417 97.252 50.417 97.2361 50.417C97.1725 50.417 97.1078 50.417 97.0442 50.417C96.0212 50.417 94.9982 50.417 93.9752 50.417C87.6395 50.417 81.3028 50.417 74.9671 50.417C72.6781 50.417 70.388 50.417 68.099 50.417C67.5268 50.417 66.9545 50.417 66.3823 50.417C66.2471 50.417 66.1132 50.4147 65.978 50.4193C65.8713 50.4238 65.7657 50.4318 65.6601 50.4466C65.206 50.5058 64.7688 50.655 64.3726 50.8851C63.5414 51.368 62.9465 52.1743 62.7308 53.1127C62.5287 53.9897 62.6728 54.9076 63.1327 55.6798C63.6255 56.5055 64.4362 57.0897 65.374 57.2936C65.5148 57.3243 65.6556 57.346 65.7987 57.3585C65.8679 57.3642 65.9372 57.3688 66.0064 57.371C66.0405 57.3722 66.0746 57.3722 66.1086 57.3722C66.2948 57.3722 66.481 57.3722 66.6672 57.3722C68.1705 57.3722 69.675 57.3722 71.1783 57.3722C72.6815 57.3722 74.186 57.3722 75.6893 57.3722C76.4409 57.3722 77.1926 57.3722 77.9453 57.3722C78.3212 57.3722 78.697 57.3722 79.0728 57.3722C79.2613 57.3722 79.4486 57.3722 79.6371 57.3722C79.7313 57.3722 79.8256 57.3722 79.9187 57.3722C79.93 57.3722 79.9425 57.3722 79.9539 57.3722C79.9596 57.3722 79.9652 57.3722 79.972 57.3722C79.9755 57.3722 79.9777 57.3722 79.9811 57.3722C79.9823 57.3722 79.9811 57.3733 79.9811 57.3744C79.9811 57.379 79.9811 57.3836 79.9811 57.3881C79.9811 57.3972 79.9811 57.4075 79.9811 57.4166C79.9811 58.0202 79.9811 58.6227 79.9811 59.2263C79.9811 59.5281 79.9811 59.8299 79.9811 60.1317C79.9811 60.282 79.9811 60.4335 79.9811 60.5838C79.9811 60.659 79.9811 60.7342 79.9811 60.8105C79.9811 60.8196 79.9811 60.8298 79.9811 60.8389C79.9811 60.8412 79.9811 60.8435 79.9811 60.8458C79.9811 60.8469 79.9811 60.8481 79.9811 60.8492C79.9811 60.8503 79.9811 60.8503 79.98 60.8503C79.9766 60.8503 79.9743 60.8503 79.9709 60.8503C79.9471 60.8503 79.9244 60.8503 79.9005 60.8503C79.8063 60.8503 79.712 60.8503 79.6189 60.8503C79.4305 60.8503 79.2431 60.8503 79.0546 60.8503C75.6211 60.8503 72.1865 60.8503 68.753 60.8503C67.8946 60.8503 67.0363 60.8503 66.1779 60.8503C66.0008 60.8503 65.8248 60.8572 65.6488 60.8811C65.307 60.9266 64.9891 61.0189 64.6757 61.1624C64.0172 61.4631 63.4676 61.963 63.1066 62.5928C62.9306 62.8992 62.808 63.2147 62.7296 63.5598C62.6933 63.7203 62.6683 63.8809 62.6558 64.0461C62.649 64.1246 62.6456 64.2032 62.6445 64.283C62.6411 64.505 62.6445 64.7271 62.6445 64.9492C62.6445 67.0072 62.6445 69.0663 62.6445 71.1243C62.6445 71.1561 62.6445 71.188 62.6445 71.2211C62.6445 71.237 62.6445 71.2529 62.6445 71.2689C62.6445 71.2712 62.6467 71.286 62.6422 71.286C62.6399 71.286 62.6365 71.286 62.6342 71.286C62.6127 71.286 62.5911 71.286 62.5707 71.286C62.5275 71.286 62.4855 71.286 62.4424 71.286C62.3572 71.286 62.2709 71.286 62.1858 71.286C62.0143 71.286 61.844 71.286 61.6725 71.286C61.3308 71.286 60.989 71.286 60.6461 71.286C60.3032 71.286 59.9626 71.286 59.6197 71.286C59.5346 71.286 59.4483 71.286 59.3631 71.286C59.32 71.286 59.278 71.286 59.2348 71.286C59.2246 71.286 59.2132 71.286 59.203 71.286C59.1973 71.286 59.1928 71.286 59.1871 71.286C59.1848 71.286 59.1814 71.286 59.1792 71.286C59.1746 71.286 59.1769 71.2814 59.1769 71.2791C59.1769 71.2746 59.1769 71.27 59.1769 71.2655C59.1769 71.1903 59.1769 71.1151 59.1769 71.04C59.1769 70.4398 59.1769 69.8396 59.1769 69.2394C59.1769 66.8375 59.1769 64.4367 59.1769 62.0348C59.1769 60.1021 59.1769 58.1694 59.1769 56.2367C59.1769 55.7538 59.1769 55.2709 59.1769 54.7869C59.1769 54.5454 59.1769 54.304 59.1769 54.0626C59.1769 53.9589 59.1758 53.8553 59.178 53.7516C59.1837 53.4954 59.203 53.2403 59.236 52.9863C59.3813 51.8804 59.7889 50.8281 60.4259 49.9136C61.7202 48.0458 63.8378 46.9388 66.1075 46.9388Z" fill="white"/>
<path d="M0.724609 59.1123C0.724623 55.2019 1.24597 51.3356 2.25684 47.5615L2.4707 46.7881C3.57531 42.9337 5.17147 39.256 7.17578 35.79L7.62207 35.0322C9.88701 31.2632 12.6105 27.7968 15.665 24.6504L16.333 23.9727C19.6963 20.6117 23.4309 17.6344 27.3984 15.0381L28.1113 14.5771C35.5026 9.85682 43.7166 6.40488 52.1406 4.13672L53.7363 3.72168C61.7351 1.71429 70.0122 0.727539 78.2451 0.727539C87.028 0.727577 95.8596 1.85116 104.352 4.1377L105.166 4.36133C113.577 6.70606 121.757 10.2386 129.096 15.042C133.328 17.8115 137.293 21.0144 140.826 24.6543L141.433 25.2871C144.441 28.4761 147.11 31.9836 149.313 35.793L149.709 36.4883C151.658 39.9813 153.194 43.6848 154.232 47.5625L154.416 48.2715C155.306 51.8202 155.765 55.4474 155.765 59.1133C155.765 62.7794 155.306 66.4071 154.416 69.9561L154.232 70.665C153.194 74.5428 151.658 78.2462 149.709 81.7402L149.313 82.4355C147.11 86.2449 144.44 89.7533 141.431 92.9424L140.824 93.5752C137.511 96.9876 133.817 100.016 129.881 102.663L129.091 103.188C121.753 107.99 113.574 111.522 105.164 113.866L104.349 114.09C95.8579 116.376 87.0266 117.498 78.2451 117.498C70.0111 117.498 61.7341 116.51 53.7344 114.503L52.1377 114.088C43.7129 111.82 35.4995 108.367 28.1074 103.646L27.3945 103.185C23.4268 100.588 19.6924 97.6111 16.3301 94.25L15.6631 93.5723C12.6096 90.4258 9.88689 86.9604 7.62207 83.1914L7.17578 82.4336C5.17141 78.9686 3.57531 75.291 2.4707 71.4365L2.25684 70.6641C1.24592 66.8899 0.724609 63.0228 0.724609 59.1123ZM1.27539 59.1123C1.27539 62.9736 1.78932 66.7927 2.78809 70.5215L3 71.2852C4.09144 75.0935 5.66919 78.7299 7.65234 82.1582L8.09473 82.9082C10.3359 86.6376 13.0311 90.0698 16.0576 93.1885L16.7197 93.8604C20.0528 97.1923 23.7564 100.146 27.6953 102.724L28.4033 103.182C35.7429 107.869 43.9039 111.301 52.2812 113.557L53.8682 113.97C61.8225 115.966 70.0547 116.948 78.2451 116.948C86.9804 116.948 95.7636 115.831 104.206 113.558L105.824 113.106C113.901 110.777 121.739 107.341 128.789 102.727L129.574 102.206C133.481 99.5783 137.146 96.5748 140.43 93.1924L141.03 92.5645C144.013 89.4037 146.657 85.9295 148.837 82.1602L149.229 81.4717C151.157 78.0149 152.675 74.3536 153.701 70.5225L153.883 69.8223C154.762 66.3161 155.214 62.7332 155.214 59.1133C155.214 55.4936 154.762 51.9112 153.883 48.4053L153.701 47.7051C152.675 43.874 151.157 40.2126 149.229 36.7568L148.837 36.0684C146.657 32.299 144.014 28.8257 141.032 25.665L140.432 25.0371C137.148 21.6546 133.485 18.6512 129.578 16.0234L128.794 15.502C121.743 10.887 113.905 7.45095 105.827 5.12109L104.208 4.66992C95.7644 2.39644 86.9814 1.27836 78.2451 1.27832C70.0556 1.27832 61.8236 2.25982 53.8701 4.25586L52.2832 4.66797C43.9069 6.92331 35.7467 10.3554 28.4082 15.042L27.7002 15.499C23.7611 18.0767 20.056 21.0302 16.7217 24.3623L16.0605 25.0342C13.0327 28.1531 10.3361 31.5865 8.09473 35.3164L7.65234 36.0664C5.66931 39.4956 4.0914 43.1313 3 46.9395L2.78809 47.7041C1.78942 51.4327 1.2754 55.2513 1.27539 59.1123Z" fill="white"/>
<path d="M47.3403 112.275C67.0484 105.812 89.4428 105.812 109.151 112.275L109.116 112.38L109.082 112.485C89.418 106.036 67.0722 106.036 47.4087 112.485C47.3511 112.504 47.2891 112.472 47.27 112.415C47.2511 112.357 47.2825 112.294 47.3403 112.275ZM109.151 112.275C109.209 112.294 109.24 112.357 109.221 112.415C109.202 112.473 109.139 112.504 109.082 112.485L109.151 112.275Z" fill="white"/>
<path d="M109.082 5.7389C109.139 5.71995 109.202 5.75143 109.221 5.80922C109.24 5.86682 109.208 5.92882 109.151 5.94789C89.7507 12.3105 67.7476 12.4105 48.2661 6.24672L47.3403 5.94789L47.3022 5.9264C47.2699 5.89822 47.2558 5.85255 47.27 5.80922C47.2843 5.76578 47.3228 5.73749 47.3657 5.73402L47.4087 5.7389L48.3325 6.03676C67.7699 12.1866 89.7253 12.0871 109.082 5.7389Z" fill="white"/>
<path d="M78.2475 95.3213C86.3891 95.3213 94.6348 96.0475 102.643 97.5498L104.137 97.8399C111.113 99.2385 118.104 101.278 124.672 104.062L126.074 104.67L126.109 104.695C126.138 104.727 126.148 104.774 126.129 104.815C126.111 104.857 126.07 104.882 126.027 104.881L125.984 104.871L124.586 104.265C118.033 101.488 111.057 99.4518 104.094 98.0557L102.602 97.7666C94.6079 96.2669 86.3762 95.542 78.2475 95.542C70.6268 95.542 62.9143 96.1788 55.393 97.4942L53.8911 97.7666C45.9377 99.2595 37.9268 101.576 30.5092 104.871C30.4537 104.896 30.3885 104.871 30.3637 104.815C30.3391 104.76 30.364 104.695 30.4194 104.67C37.8553 101.367 45.8838 99.0453 53.851 97.5498L55.3549 97.2774C62.8894 95.9597 70.6147 95.3213 78.2475 95.3213Z" fill="white"/>
<path d="M78.2456 83.2137C88.5796 83.2138 99.2526 83.9957 109.458 85.6903L111.317 86.0096C120.67 87.6767 130.913 90.3722 139.436 94.5243C139.49 94.551 139.513 94.6164 139.487 94.6708C139.46 94.7255 139.394 94.7482 139.339 94.7216C130.842 90.5818 120.621 87.8925 111.279 86.2274L109.422 85.9071C99.2298 84.2147 88.5688 83.4345 78.2456 83.4344C68.5694 83.4344 58.5961 84.1193 48.9897 85.5995L47.0737 85.9061C37.5509 87.4875 26.9041 90.1329 18.0063 94.3124L17.1508 94.7216C17.0962 94.7481 17.031 94.7254 17.0043 94.6708C16.9779 94.6162 17.0005 94.5509 17.0551 94.5243L17.9126 94.1132C26.8362 89.9215 37.505 87.2723 47.0376 85.6893L48.9555 85.3817C58.5744 83.8996 68.5592 83.2137 78.2456 83.2137Z" fill="white"/>
<path d="M139.381 23.4899C139.424 23.4876 139.467 23.5114 139.487 23.5524C139.513 23.6069 139.49 23.6722 139.436 23.6989L138.578 24.1101C130.231 28.0302 120.358 30.6021 111.317 32.2136L109.458 32.5329C99.2526 34.2275 88.5796 35.0095 78.2456 35.0095C68.5592 35.0095 58.5744 34.3236 48.9555 32.8415L47.0376 32.5339C37.505 30.9509 26.8363 28.3017 17.9126 24.1101L17.0551 23.6989L17.02 23.6726C16.9919 23.6403 16.9845 23.5934 17.0043 23.5524C17.0243 23.5115 17.066 23.4877 17.1088 23.4899L17.1508 23.5017L18.0063 23.9108C26.9041 28.0903 37.5508 30.7358 47.0737 32.3171L48.9897 32.6237C58.5962 34.1039 68.5694 34.7888 78.2456 34.7888C88.5688 34.7888 99.2297 34.0085 109.422 32.3161L111.279 31.9968C120.621 30.3317 130.842 27.6414 139.339 23.5017L139.381 23.4899Z" fill="white"/>
<path d="M125.984 13.3549C126.039 13.3303 126.105 13.3552 126.129 13.4106C126.154 13.4661 126.129 13.5314 126.074 13.5561C119.103 16.653 111.611 18.8876 104.137 20.3862L102.643 20.6762C94.6348 22.1786 86.3891 22.9047 78.2475 22.9047C70.6147 22.9047 62.8894 22.2664 55.3549 20.9487L53.851 20.6762C46.3818 19.2742 38.8588 17.1468 31.8208 14.1645L30.4194 13.5561L30.3842 13.5307C30.3549 13.4994 30.3452 13.4523 30.3637 13.4106C30.3823 13.369 30.4235 13.3444 30.4663 13.3452L30.5092 13.3549L31.9067 13.9614C38.9278 16.9365 46.4347 19.0598 53.8911 20.4594L55.393 20.7319C62.9143 22.0472 70.6268 22.684 78.2475 22.684C86.3762 22.684 94.6079 21.9591 102.602 20.4594L104.094 20.1703C111.555 18.6745 119.03 16.4441 125.984 13.3549Z" fill="white"/>
<path d="M21.9236 72.7281C21.968 72.7174 22.0133 72.7355 22.0388 72.7701L22.0574 72.8092L22.3562 73.9899C25.5712 86.1412 32.6397 96.9273 42.5115 104.711L43.4734 105.454C53.1641 112.77 64.9051 116.845 77.031 117.1L78.2449 117.113L78.2878 117.121C78.3274 117.137 78.3551 117.177 78.3552 117.222C78.3552 117.268 78.3273 117.307 78.2878 117.324L78.2449 117.333L77.0261 117.32C64.8539 117.064 53.0682 112.974 43.3406 105.63L42.3747 104.883C32.4656 97.0706 25.3705 86.2437 22.1433 74.0465L21.8425 72.8619L21.8415 72.818C21.8484 72.7757 21.8794 72.739 21.9236 72.7281Z" fill="white"/>
<path d="M20.347 61.2055C20.3923 61.2039 20.4323 61.2303 20.4505 61.2689L20.4612 61.3119L20.5208 62.5482C20.5695 63.3713 20.6355 64.1926 20.719 65.0131L20.8577 66.2436L20.8548 66.2875C20.8431 66.3288 20.8073 66.361 20.762 66.3666C20.717 66.3721 20.6751 66.3497 20.6536 66.3129L20.639 66.2709L20.5003 65.0355C20.4165 64.2118 20.35 63.3872 20.3011 62.5609L20.2405 61.3197L20.2474 61.2768C20.2625 61.2366 20.3014 61.2072 20.347 61.2055Z" fill="white"/>
<path d="M78.2445 0.8913C78.3051 0.891485 78.3539 0.940948 78.3539 1.00165C78.3539 1.06236 78.3051 1.11182 78.2445 1.112C65.2098 1.112 52.5567 5.53062 42.3392 13.6491C32.1219 21.7675 24.9382 33.1117 21.9554 45.8395L21.9369 45.8796C21.9116 45.9142 21.867 45.932 21.8226 45.9216C21.7637 45.9076 21.7269 45.8488 21.7406 45.7897L22.0335 44.5954C25.1883 32.3044 32.2667 21.3709 42.2025 13.4763C52.4588 5.32694 65.1601 0.8913 78.2445 0.8913Z" fill="white"/>
<path d="M40.6992 72.7272C40.7443 72.7199 40.7877 72.7405 40.8105 72.777L40.8252 72.818L40.9873 73.7858C41.8268 78.6212 43.1043 83.4176 44.8525 88.0016L45.208 88.9137C47.0196 93.4668 49.3395 97.8801 52.2148 101.852L52.7939 102.637C55.7337 106.536 59.2909 110.052 63.4521 112.661L64.2949 113.172C68.3993 115.575 72.9456 117.015 77.748 117.108L78.2461 117.113L78.289 117.121C78.3283 117.137 78.3551 117.177 78.3552 117.222C78.3552 117.268 78.3283 117.307 78.289 117.324L78.2461 117.333L77.7431 117.328C72.7315 117.23 68.0006 115.679 63.7578 113.107L63.3349 112.847C59.1466 110.222 55.5706 106.686 52.6181 102.77L52.0361 101.982C49.1486 97.9933 46.8212 93.5629 45.0039 88.9957L44.6465 88.0797C42.8928 83.4815 41.6122 78.6712 40.7705 73.8229L40.6084 72.8531L40.6094 72.8092C40.6196 72.7676 40.6543 72.7345 40.6992 72.7272Z" fill="white"/>
<path d="M39.6787 62.2903C39.7241 62.2887 39.764 62.3152 39.7822 62.3538L39.793 62.3968L39.834 63.3607C39.8654 64.0031 39.9046 64.6449 39.9502 65.2864L40.0234 66.2493L40.0185 66.2923C40.0052 66.3332 39.9684 66.3637 39.9228 66.3675C39.8774 66.3712 39.8363 66.347 39.8164 66.3089L39.8037 66.2669L39.7305 65.3021C39.6848 64.6589 39.6457 64.0155 39.6143 63.3714L39.5723 62.4046L39.5801 62.3616C39.5953 62.3216 39.6332 62.2921 39.6787 62.2903Z" fill="white"/>
<path d="M39.9228 51.8577C39.9833 51.8628 40.0283 51.9154 40.0234 51.9759L39.9492 52.9388C39.9036 53.5803 39.8652 54.2221 39.834 54.8646L39.793 55.8284C39.7907 55.8891 39.7394 55.937 39.6787 55.9349C39.618 55.9326 39.5701 55.8813 39.5723 55.8206L39.6143 54.8538C39.6612 53.8878 39.7237 52.9231 39.8037 51.9583L39.8164 51.9163C39.8363 51.8782 39.8773 51.854 39.9228 51.8577Z" fill="white"/>
<path d="M78.2445 0.8913C78.3051 0.891485 78.3539 0.940948 78.3539 1.00165C78.3539 1.06236 78.3051 1.11182 78.2445 1.112C73.2583 1.112 68.5394 2.56698 64.2943 5.05243L63.4515 5.56318C59.2882 8.17274 55.7294 11.6905 52.7884 15.5925L52.2084 16.3776C49.3353 20.3473 47.0169 24.7586 45.2064 29.3093L44.8509 30.2214C42.985 35.112 41.6561 40.2434 40.8226 45.4059C40.8129 45.466 40.7567 45.5074 40.6967 45.4977C40.6366 45.4881 40.5961 45.4308 40.6058 45.3708C41.4415 40.1948 42.7741 35.0491 44.6459 30.1433L45.0023 29.2282C46.8185 24.6631 49.1452 20.2354 52.0306 16.2487L52.6127 15.4597C55.5663 11.5409 59.144 8.00318 63.3343 5.37665L63.7572 5.11591C68.1405 2.45916 73.0465 0.8913 78.2445 0.8913Z" fill="white"/>
<path d="M59.4723 72.7262C59.5178 72.7225 59.5589 72.7467 59.5787 72.7848L59.5904 72.8268L59.7233 74.3736C60.427 82.1458 61.7578 90.437 63.9713 97.8678L64.1959 98.607C65.3405 102.32 66.8577 106.263 68.8082 109.594L69.2506 110.329C69.703 111.056 70.1861 111.76 70.7115 112.439L71.1666 113.007C71.6312 113.566 72.124 114.095 72.6608 114.59L72.9811 114.878C73.7401 115.535 74.5782 116.107 75.4986 116.511L75.8277 116.647C76.4911 116.903 77.1785 117.062 77.8883 117.102L78.2449 117.113L78.2878 117.121C78.3274 117.137 78.3551 117.177 78.3552 117.222C78.3552 117.268 78.3273 117.307 78.2878 117.324L78.2449 117.333L77.8756 117.322C77.0187 117.273 76.1953 117.058 75.4098 116.713C74.4644 116.297 73.6082 115.712 72.8365 115.044L72.5113 114.753C71.9665 114.25 71.4674 113.713 70.9977 113.148L70.5367 112.574C70.0062 111.888 69.5198 111.177 69.0641 110.445L68.6178 109.706C66.6555 106.354 65.1324 102.393 63.985 98.6715L63.7604 97.9303C61.5415 90.4814 60.2082 82.1751 59.5035 74.3932L59.3717 72.8444L59.3766 72.8014C59.39 72.7605 59.4267 72.7299 59.4723 72.7262Z" fill="white"/>
<path d="M78.2464 0.890023C78.3071 0.890097 78.3567 0.939602 78.3567 1.00037C78.3567 1.06115 78.3071 1.11065 78.2464 1.11073C77.3582 1.11073 76.5055 1.29756 75.6917 1.63026L75.345 1.78162C74.3643 2.23711 73.4791 2.88105 72.6839 3.6117L72.3489 3.93006C71.7909 4.47535 71.2821 5.05612 70.803 5.66737L70.3323 6.28846C69.7899 7.03234 69.2938 7.80091 68.8294 8.59217L68.3753 9.391C66.3817 13.0071 64.8499 17.2614 63.7083 21.2572L63.4856 22.0521C61.2815 30.0511 60.0277 38.9325 59.4505 47.2631L59.344 48.9213C59.3404 48.9819 59.2875 49.0284 59.2268 49.0248C59.1663 49.021 59.1197 48.9682 59.1233 48.9076L59.2308 47.2474C59.8087 38.9068 61.0637 30.0102 63.2727 21.9935L63.4964 21.1967C64.6405 17.192 66.1774 12.9204 68.1819 9.28455L68.639 8.48084C69.1066 7.68401 69.6072 6.90929 70.1546 6.15858L70.6292 5.53162C71.1133 4.91395 71.6285 4.3251 72.1946 3.77186L72.5345 3.44959C73.342 2.7076 74.2459 2.04879 75.2522 1.58143L75.6087 1.42616C76.4458 1.084 77.3265 0.890023 78.2464 0.890023Z" fill="white"/>
<path d="M78.2949 117.126C78.2937 117.125 78.2921 117.125 78.291 117.125C78.2959 117.127 78.3001 117.131 78.3046 117.134C78.3012 117.131 78.2985 117.128 78.2949 117.126ZM78.3369 117.282C78.336 117.283 78.3346 117.284 78.3339 117.285C78.3358 117.282 78.3362 117.279 78.3378 117.276C78.3387 117.275 78.3409 117.274 78.3417 117.272C78.3395 117.277 78.3379 117.281 78.3369 117.282ZM78.3535 117.237C78.3528 117.242 78.3506 117.247 78.3495 117.251C78.3513 117.244 78.3519 117.238 78.3525 117.231C78.3523 117.233 78.3537 117.236 78.3535 117.237ZM78.3466 117.188C78.3462 117.187 78.3471 117.185 78.3466 117.184L78.3456 117.182C78.3465 117.184 78.3459 117.186 78.3466 117.188ZM78.3456 117.264L78.3466 117.263V117.26C78.3444 117.266 78.341 117.271 78.3378 117.276C78.3259 117.297 78.3096 117.316 78.287 117.325L78.2441 117.334L78.1933 117.321C78.1697 117.309 78.1513 117.288 78.1415 117.263C78.136 117.248 78.1366 117.234 78.1367 117.223H78.1347V62.4033C78.1347 62.3426 78.1834 62.2931 78.2441 62.2929C78.3049 62.2929 78.3544 62.3424 78.3544 62.4033L78.3552 117.222L78.3525 117.231C78.3518 117.241 78.3504 117.249 78.3476 117.258C78.3483 117.256 78.3489 117.253 78.3495 117.251C78.3487 117.254 78.3478 117.256 78.3466 117.26C78.3463 117.261 78.346 117.263 78.3456 117.264Z" fill="white"/>
<path d="M78.1337 55.8245V51.9671C78.1337 51.9063 78.1833 51.8568 78.2441 51.8568C78.3049 51.8568 78.3544 51.9063 78.3544 51.9671V55.8245C78.3544 55.8854 78.3049 55.9349 78.2441 55.9349C78.1833 55.9349 78.1337 55.8854 78.1337 55.8245Z" fill="white"/>
<path d="M78.1542 1.06318V1.06513C78.1581 1.07068 78.1635 1.07443 78.1679 1.0788L78.1845 1.09443C78.172 1.08626 78.1622 1.0748 78.1542 1.06318ZM78.3515 1.02314L78.3525 1.02118L78.3544 1.00653V45.3884C78.3544 45.4492 78.3049 45.4987 78.2441 45.4987C78.1833 45.4987 78.1337 45.4492 78.1337 45.3884V1.00653C78.1337 1.00069 78.136 0.995336 78.1367 0.99091C78.1383 0.97414 78.1416 0.95722 78.1513 0.942082C78.1843 0.891281 78.2527 0.876172 78.3036 0.908879L78.3349 0.939152C78.3433 0.951253 78.3493 0.965183 78.3525 0.980168C78.3563 0.998341 78.3533 1.0135 78.3515 1.02314Z" fill="white"/>
<path d="M97.5185 51.9622C97.9829 63.2502 97.36 75.487 95.3535 86.6917L95.1552 87.7728C94.1507 93.1087 92.6894 98.8939 90.621 104.016L90.1992 105.032C89.6388 106.343 89.0303 107.625 88.3437 108.874L88.0439 109.409C87.445 110.455 86.7992 111.461 86.0693 112.421L85.7509 112.829C85.2457 113.462 84.7111 114.06 84.124 114.617L83.8691 114.853C83.3545 115.318 82.8149 115.738 82.2265 116.105L81.9716 116.259C80.8344 116.922 79.5879 117.334 78.2441 117.334C78.1833 117.334 78.1337 117.285 78.1337 117.224C78.1339 117.163 78.1834 117.115 78.2441 117.115C79.5411 117.115 80.7494 116.716 81.8603 116.069L82.1103 115.918C82.6858 115.559 83.215 115.148 83.7216 114.69L83.9726 114.457C84.551 113.909 85.0789 113.319 85.579 112.693L85.8945 112.287C86.6172 111.337 87.2574 110.339 87.8525 109.299L88.1503 108.769C88.8329 107.527 89.4388 106.252 89.997 104.945L90.4169 103.933C92.4777 98.8295 93.9354 93.0598 94.9384 87.7318L95.1367 86.6527C97.1398 75.4665 97.7626 63.2466 97.2988 51.972L97.5185 51.9622ZM97.4042 51.8568C97.4649 51.8543 97.5158 51.9016 97.5185 51.9622L97.2988 51.972C97.2963 51.9112 97.3435 51.8593 97.4042 51.8568Z" fill="white"/>
<path d="M78.6132 0.902043C79.4699 0.950463 80.2925 1.16597 81.0781 1.51044L81.4775 1.69794C82.3963 2.15983 83.227 2.77985 83.9745 3.46845L84.2431 3.72236C84.8624 4.32153 85.4229 4.96513 85.9501 5.64716L86.2119 5.99189C86.8141 6.80127 87.3598 7.64356 87.8701 8.51532L88.2568 9.19306C90.1619 12.6236 91.6308 16.6072 92.7294 20.2936L93.162 21.7946C95.2639 29.3515 96.4971 37.6738 97.1191 45.3796C97.124 45.4402 97.0781 45.4938 97.0175 45.4987C96.9571 45.5033 96.9042 45.4576 96.8994 45.3972C96.2781 37.7005 95.0461 29.3933 92.9492 21.8542L92.5185 20.3561C91.4222 16.6775 89.9584 12.7112 88.0644 9.30048L87.6796 8.62665C87.1727 7.76066 86.6317 6.92547 86.0351 6.12372L85.7753 5.78193C85.2533 5.10657 84.7001 4.47111 84.0898 3.88056L83.8251 3.63056C83.0885 2.95201 82.2747 2.34559 81.3788 1.89521L80.9892 1.71161C80.2249 1.37652 79.4281 1.16851 78.6005 1.12177L78.2445 1.112L78.2011 1.10321C78.1616 1.08648 78.1337 1.04724 78.1337 1.00165C78.1337 0.940834 78.1837 0.8913 78.2445 0.8913L78.6132 0.902043Z" fill="white"/>
<path d="M116.585 66.1082C116.645 66.1133 116.69 66.166 116.685 66.2264L116.59 67.3104C116.112 72.3662 115.182 77.4168 113.772 82.2997L113.463 83.3436C111.884 88.5315 109.717 93.6316 106.896 98.2918L106.324 99.2176C103.343 103.934 99.5689 108.312 94.9911 111.611L94.5458 111.928C89.7414 115.277 84.2001 117.333 78.2449 117.333C78.184 117.333 78.1347 117.283 78.1347 117.223C78.1348 117.162 78.1833 117.112 78.2441 117.112C84.147 117.112 89.6459 115.075 94.4199 111.747L94.8622 111.432C99.412 108.154 103.168 103.799 106.138 99.1004L106.708 98.1776C109.517 93.5351 111.679 88.4523 113.253 83.2791L113.561 82.2381C115.067 77.0216 116.024 71.6119 116.466 66.2088L116.478 66.1668C116.498 66.1288 116.539 66.1045 116.585 66.1082Z" fill="white"/>
<path d="M78.7448 0.896183C83.9237 0.99678 88.8034 2.65011 93.1539 5.37665L93.984 5.91376C98.0926 8.65944 101.587 12.2815 104.458 16.2487L105.028 17.0515C107.839 21.0956 110.094 25.5612 111.842 30.1433L112.187 31.0661C113.766 35.3843 114.935 39.876 115.72 44.4011L115.882 45.3708L115.881 45.4147C115.871 45.4565 115.837 45.4905 115.792 45.4977C115.746 45.505 115.703 45.4835 115.68 45.447L115.666 45.4059L115.504 44.4392C114.72 39.9257 113.554 35.4465 111.98 31.1413L111.637 30.2214C109.894 25.6532 107.646 21.2048 104.846 17.1774L104.28 16.3776C101.421 12.4267 97.9438 8.82468 93.861 6.09638L93.0368 5.56318C88.7154 2.8549 83.8745 1.21669 78.7409 1.11689L78.2428 1.112L78.1998 1.10321C78.1603 1.08648 78.1325 1.04724 78.1325 1.00165C78.1325 0.940834 78.182 0.8913 78.2428 0.8913L78.7448 0.896183Z" fill="white"/>
<path d="M134.564 72.7281C134.623 72.7426 134.66 72.8029 134.645 72.8619C131.573 85.5421 124.342 96.8185 114.114 104.883C103.886 112.948 91.2543 117.333 78.2449 117.333C78.184 117.333 78.1337 117.283 78.1337 117.222C78.1339 117.162 78.1834 117.112 78.2441 117.112C91.2039 117.112 103.788 112.745 113.977 104.711C124.167 96.6762 131.37 85.4418 134.431 72.8092C134.445 72.7503 134.505 72.7138 134.564 72.7281Z" fill="white"/>
<path d="M79.4697 0.904972C92.12 1.17286 104.349 5.58156 114.285 13.4763C124.221 21.3709 131.298 32.3045 134.453 44.5954L134.746 45.7897L134.748 45.8337C134.741 45.8758 134.708 45.9112 134.664 45.9216C134.62 45.9319 134.575 45.9143 134.55 45.8796L134.532 45.8395L134.24 44.6511C131.097 32.4061 124.046 21.514 114.147 13.6491C104.249 5.78433 92.067 1.39152 79.4648 1.1247L78.2445 1.112L78.2011 1.10321C78.1616 1.08648 78.1337 1.04724 78.1337 1.00165C78.1337 0.940834 78.1837 0.8913 78.2445 0.8913L79.4697 0.904972Z" fill="white"/>
<path d="M42.8185 72.7262C42.879 72.7203 42.9326 72.7643 42.9386 72.8248C42.9444 72.8853 42.9004 72.939 42.8399 72.9449C37.1331 73.4989 31.1488 74.2493 25.4649 75.2506L24.3331 75.4537C18.9117 76.4479 11.4864 78.1049 6.42784 80.5192C6.37295 80.5454 6.30657 80.5213 6.28038 80.4664C6.25457 80.4117 6.27761 80.3462 6.33214 80.3199C11.4197 77.8917 18.8714 76.2312 24.2931 75.2369L25.4269 75.0338C31.1178 74.0313 37.1078 73.2805 42.8185 72.7262Z" fill="white"/>
<path d="M57.6641 71.6421C57.7046 71.6566 57.7349 71.6941 57.7373 71.7397C57.7397 71.7852 57.7134 71.8254 57.6748 71.8442L57.6329 71.8559C55.8578 71.9481 54.0836 72.0539 52.3096 72.1723C52.249 72.1764 52.1956 72.1304 52.1914 72.0698C52.1874 72.0093 52.2336 71.9569 52.294 71.9526C54.0691 71.8341 55.8448 71.7275 57.6211 71.6352L57.6641 71.6421Z" fill="white"/>
<path d="M72.9492 71.1416C75.8724 71.1041 78.7947 71.0971 81.7168 71.1221L83.9101 71.1465C88.2945 71.2067 92.675 71.3381 97.0556 71.545L99.2461 71.6543L99.288 71.6651C99.3269 71.6838 99.353 71.7248 99.3505 71.7706C99.3481 71.8161 99.3178 71.8537 99.2773 71.8682L99.2343 71.8741L97.0449 71.7647C92.6666 71.5579 88.2884 71.4274 83.9062 71.3672L81.7148 71.3428C78.7943 71.3178 75.8738 71.3248 72.9521 71.3624C70.0304 71.3999 67.1098 71.469 64.1904 71.5704L64.1474 71.5635C64.1072 71.5483 64.0777 71.5096 64.0761 71.4639C64.0742 71.4033 64.122 71.3528 64.1826 71.3506L66.374 71.2803C68.5651 71.2162 70.7568 71.1698 72.9492 71.1416Z" fill="white"/>
<path d="M150.154 80.3214C150.209 80.3477 150.232 80.4131 150.205 80.4679C150.179 80.5227 150.114 80.5458 150.059 80.5196L150.154 80.3214ZM108.589 72.2775C115.129 72.8031 121.892 73.5464 128.297 74.5704L129.534 74.7726C135.874 75.8307 144.506 77.6246 150.154 80.3214L150.106 80.42L150.059 80.5196C144.441 77.8373 135.837 76.0483 129.498 74.9903L128.263 74.7882C121.864 73.7653 115.107 73.0224 108.572 72.4972L105.787 72.2843L105.745 72.2726C105.706 72.2531 105.682 72.2126 105.685 72.1671C105.689 72.1065 105.742 72.0612 105.802 72.0655L108.589 72.2775Z" fill="white"/>
<path d="M6.42784 37.7052L6.90831 37.9298C11.9479 40.2229 19.081 41.8074 24.3331 42.7706L25.4649 42.9737C30.3911 43.8415 35.5428 44.5207 40.5441 45.047L42.84 45.2794L42.8819 45.2921C42.9194 45.3126 42.943 45.3543 42.9386 45.3995C42.9341 45.4447 42.9032 45.4814 42.8624 45.4942L42.8185 45.4981L40.5206 45.2657C35.5158 44.7391 30.359 44.0594 25.4269 43.1905L24.2931 42.9864C19.0409 42.0233 11.884 40.4358 6.81651 38.13L6.33214 37.9044L6.29796 37.878C6.26931 37.8459 6.26068 37.7982 6.28038 37.7569C6.30005 37.716 6.34214 37.6926 6.38487 37.6944L6.42784 37.7052Z" fill="white"/>
<path d="M59.45 46.4583L61.6434 46.556L61.6863 46.5658C61.7251 46.5841 61.7507 46.6247 61.7488 46.6703C61.7469 46.7159 61.7178 46.7539 61.6775 46.7689L61.6346 46.7757L59.4393 46.6781L57.2449 46.5687L57.2029 46.557C57.1643 46.5382 57.138 46.4981 57.1404 46.4525C57.1436 46.3918 57.1959 46.3448 57.2566 46.348L59.45 46.4583Z" fill="white"/>
<path d="M104.221 46.0574C104.262 46.0714 104.291 46.1088 104.294 46.1541C104.299 46.2148 104.253 46.2682 104.192 46.2722L101.53 46.4402C100.642 46.493 99.754 46.5425 98.8658 46.5886C98.805 46.5918 98.7527 46.5449 98.7496 46.4841C98.7465 46.4235 98.7934 46.3722 98.8541 46.3689C100.629 46.2767 102.403 46.1699 104.177 46.0515L104.221 46.0574Z" fill="white"/>
<path d="M150.104 37.6944C150.147 37.6927 150.189 37.716 150.209 37.7569C150.235 37.8118 150.211 37.8782 150.156 37.9044L149.673 38.13C144.931 40.2881 138.36 41.8172 133.231 42.794L132.191 42.9884C126.169 44.0926 119.761 44.9069 113.672 45.4981C113.611 45.504 113.558 45.4599 113.552 45.3995C113.546 45.339 113.59 45.2853 113.65 45.2794C119.735 44.6885 126.137 43.8745 132.152 42.7716L133.191 42.5773C138.494 41.5672 145.318 39.9697 150.061 37.7052L150.104 37.6944Z" fill="white"/>
<path d="M1.0293 59.0022H17.7988L17.8418 59.0109C17.8811 59.0278 17.9082 59.0671 17.9082 59.1125C17.9081 59.1579 17.8811 59.1973 17.8418 59.2141L17.7988 59.2229H1.03027C1.02517 59.2229 1.02066 59.222 1.01758 59.2219H1.01074L1.01855 59.2209L0.974609 59.2199C0.932963 59.2101 0.899351 59.1759 0.891602 59.1311C0.881385 59.0711 0.92155 59.0144 0.981445 59.0041L1.01953 59.0012C1.02277 59.0013 1.0284 59.0021 1.0293 59.0022Z" fill="white"/>
<path d="M57.6279 59.0012L57.6699 59.01C57.7096 59.0266 57.7373 59.0658 57.7373 59.1115C57.7373 59.1573 57.7096 59.1965 57.6699 59.2131L57.6279 59.2219H55.4668C55.4059 59.2219 55.3564 59.1724 55.3564 59.1115C55.3564 59.0507 55.4059 59.0012 55.4668 59.0012H57.6279Z" fill="white"/>
<path d="M99.2397 59.0012L99.2826 59.01C99.3222 59.0267 99.35 59.0659 99.35 59.1115C99.35 59.1572 99.3222 59.1964 99.2826 59.2131L99.2397 59.2219H81.5238C81.463 59.2219 81.4135 59.1724 81.4135 59.1115C81.4135 59.0507 81.463 59.0012 81.5238 59.0012H99.2397Z" fill="white"/>
<path d="M116.575 59.0012L116.618 59.01C116.657 59.0266 116.685 59.0658 116.685 59.1115C116.685 59.1573 116.657 59.1965 116.618 59.2131L116.575 59.2219H105.794C105.734 59.2219 105.684 59.1724 105.684 59.1115C105.684 59.0507 105.734 59.0012 105.794 59.0012H116.575Z" fill="white"/>
<path d="M133.914 59.0012L133.956 59.01C133.996 59.0266 134.024 59.0658 134.024 59.1115C134.024 59.1573 133.996 59.1965 133.956 59.2131L133.914 59.2219H123.133C123.072 59.2219 123.023 59.1724 123.023 59.1115C123.023 59.0507 123.072 59.0012 123.133 59.0012H133.914Z" fill="white"/>
<path d="M155.479 59.0012L155.491 59.0022H155.485C155.484 59.0022 155.477 59.0019 155.469 59.0031C155.469 59.0032 155.468 59.0038 155.466 59.0041C155.479 59.0017 155.493 59.0006 155.506 59.0031L155.511 59.0041C155.513 59.0044 155.517 59.0056 155.521 59.007C155.523 59.0077 155.529 59.0096 155.536 59.0129C155.539 59.0146 155.546 59.0182 155.553 59.0236C155.559 59.028 155.575 59.0408 155.587 59.0637C155.601 59.093 155.603 59.1317 155.584 59.1662C155.569 59.1925 155.547 59.2049 155.539 59.2092C155.522 59.2178 155.506 59.2206 155.505 59.2209C155.497 59.2222 155.49 59.2219 155.489 59.2219H140.47C140.41 59.2219 140.36 59.1724 140.36 59.1115C140.36 59.0507 140.41 59.0012 140.47 59.0012H155.479ZM155.439 59.2102C155.446 59.2136 155.452 59.2163 155.454 59.217C155.458 59.2183 155.461 59.2187 155.463 59.219L155.465 59.2199C155.452 59.2174 155.441 59.2117 155.43 59.2053C155.434 59.2075 155.437 59.2092 155.439 59.2102ZM155.422 59.2004L155.423 59.2014C155.421 59.1998 155.42 59.1973 155.418 59.1955C155.419 59.1971 155.42 59.1995 155.422 59.2004ZM155.388 59.1604L155.39 59.1623C155.389 59.1597 155.388 59.1572 155.386 59.1545C155.387 59.1564 155.387 59.1586 155.388 59.1604ZM155.437 59.0139C155.436 59.0146 155.434 59.0164 155.431 59.0178C155.437 59.0143 155.443 59.0123 155.45 59.01C155.446 59.0114 155.441 59.0117 155.437 59.0139Z" fill="white"/>
<path d="M64.6869 22.009C64.6869 21.296 64.1101 20.7175 63.3993 20.7175C62.6886 20.7175 62.1118 21.296 62.1118 22.009C62.1118 22.7219 62.6886 23.3005 63.3993 23.3005C64.1101 23.3005 64.6869 22.7231 64.6869 22.009Z" fill="white"/>
<path d="M91.8031 22.009C91.8031 21.296 92.3799 20.7175 93.0906 20.7175C93.8014 20.7175 94.3782 21.296 94.3782 22.009C94.3782 22.7219 93.8014 23.3005 93.0906 23.3005C92.3799 23.3005 91.8031 22.7231 91.8031 22.009Z" fill="white"/>
<path d="M79.5416 10.7167C79.5416 10.0037 78.9648 9.42519 78.254 9.42519C77.5432 9.42519 76.9665 10.0037 76.9665 10.7167C76.9665 11.4296 77.5432 12.0082 78.254 12.0082C78.9659 12.0082 79.5416 11.4296 79.5416 10.7167Z" fill="white"/>
<path d="M67.8448 10.8176C68.2003 10.8176 68.4886 10.5285 68.4886 10.1719C68.4886 9.81525 68.2003 9.52614 67.8448 9.52614C67.4892 9.52614 67.201 9.81525 67.201 10.1719C67.201 10.5285 67.4892 10.8176 67.8448 10.8176Z" fill="white"/>
<path d="M58.8867 9.49124C59.2422 9.49124 59.5304 9.20213 59.5304 8.84549C59.5304 8.48885 59.2422 8.19974 58.8867 8.19974C58.5311 8.19974 58.2429 8.48885 58.2429 8.84549C58.2429 9.20213 58.5311 9.49124 58.8867 9.49124Z" fill="white"/>
<path d="M50.4881 19.7544C50.4881 19.398 50.1997 19.1087 49.8443 19.1087C49.4889 19.1087 49.2006 19.398 49.2006 19.7544C49.2006 20.1109 49.4889 20.4002 49.8443 20.4002C50.2008 20.399 50.4881 20.1109 50.4881 19.7544Z" fill="white"/>
<path d="M61.4534 34.1634C61.4534 33.8069 61.165 33.5176 60.8096 33.5176C60.4542 33.5176 60.1658 33.8069 60.1658 34.1634C60.1658 34.5199 60.4542 34.8091 60.8096 34.8091C61.1661 34.8091 61.4534 34.5199 61.4534 34.1634Z" fill="white"/>
<path d="M44.7613 31.9233C44.7613 31.5669 44.4729 31.2776 44.1175 31.2776C43.7621 31.2776 43.4737 31.5669 43.4737 31.9233C43.4737 32.2798 43.7621 32.5691 44.1175 32.5691C44.474 32.5691 44.7613 32.2798 44.7613 31.9233Z" fill="white"/>
<path d="M29.1455 28.9336C29.5011 28.9336 29.7893 28.6445 29.7893 28.2879C29.7893 27.9312 29.5011 27.6421 29.1455 27.6421C28.79 27.6421 28.5017 27.9312 28.5017 28.2879C28.5017 28.6445 28.79 28.9336 29.1455 28.9336Z" fill="white"/>
<path d="M39.3456 16.6633C39.3456 16.3069 39.0572 16.0176 38.7018 16.0176C38.3464 16.0176 38.058 16.3069 38.058 16.6633C38.058 17.0198 38.3464 17.3091 38.7018 17.3091C39.0572 17.3091 39.3456 17.0198 39.3456 16.6633Z" fill="white"/>
<path d="M52.7452 7.27119C52.7452 6.91471 52.4568 6.62544 52.1014 6.62544C51.746 6.62544 51.4576 6.91471 51.4576 7.27119C51.4576 7.62766 51.746 7.91694 52.1014 7.91694C52.4568 7.91694 52.7452 7.62766 52.7452 7.27119Z" fill="white"/>
<path d="M88.6455 10.8176C89.0011 10.8176 89.2893 10.5285 89.2893 10.1719C89.2893 9.81525 89.0011 9.52614 88.6455 9.52614C88.29 9.52614 88.0018 9.81525 88.0018 10.1719C88.0018 10.5285 88.29 10.8176 88.6455 10.8176Z" fill="white"/>
<path d="M96.9599 8.84549C96.9599 8.48902 97.2483 8.19974 97.6037 8.19974C97.9591 8.19974 98.2475 8.48902 98.2475 8.84549C98.2475 9.20196 97.9591 9.49124 97.6037 9.49124C97.2483 9.49124 96.9599 9.20196 96.9599 8.84549Z" fill="white"/>
<path d="M106.002 19.7544C106.002 19.398 106.291 19.1087 106.646 19.1087C107.001 19.1087 107.29 19.398 107.29 19.7544C107.29 20.1109 107.001 20.4002 106.646 20.4002C106.291 20.399 106.002 20.1109 106.002 19.7544Z" fill="white"/>
<path d="M95.0357 34.1634C95.0357 33.8069 95.3241 33.5176 95.6794 33.5176C96.0348 33.5176 96.3232 33.8069 96.3232 34.1634C96.3232 34.5199 96.0348 34.8091 95.6794 34.8091C95.3241 34.8091 95.0357 34.5199 95.0357 34.1634Z" fill="white"/>
<path d="M111.727 31.9233C111.727 31.5669 112.015 31.2776 112.37 31.2776C112.726 31.2776 113.014 31.5669 113.014 31.9233C113.014 32.2798 112.726 32.5691 112.37 32.5691C112.015 32.5691 111.727 32.2798 111.727 31.9233Z" fill="white"/>
<path d="M127.342 28.9336C127.698 28.9336 127.986 28.6445 127.986 28.2879C127.986 27.9312 127.698 27.6421 127.342 27.6421C126.987 27.6421 126.698 27.9312 126.698 28.2879C126.698 28.6445 126.987 28.9336 127.342 28.9336Z" fill="white"/>
<path d="M117.145 16.6633C117.145 16.3069 117.433 16.0176 117.789 16.0176C118.144 16.0176 118.432 16.3069 118.432 16.6633C118.432 17.0198 118.144 17.3091 117.789 17.3091C117.433 17.3091 117.145 17.0198 117.145 16.6633Z" fill="white"/>
<path d="M103.743 7.27119C103.743 6.91471 104.031 6.62544 104.386 6.62544C104.742 6.62544 105.03 6.91471 105.03 7.27119C105.03 7.62766 104.742 7.91694 104.386 7.91694C104.031 7.91694 103.743 7.62766 103.743 7.27119Z" fill="white"/>
<path d="M78.2599 97.9564C79.6821 97.9564 80.835 96.7999 80.835 95.3734C80.835 93.9468 79.6821 92.7904 78.2599 92.7904C76.8377 92.7904 75.6848 93.9468 75.6848 95.3734C75.6848 96.7999 76.8377 97.9564 78.2599 97.9564Z" fill="white"/>
<path d="M64.6869 96.2159C64.6869 96.9288 64.1101 97.5074 63.3993 97.5074C62.6886 97.5074 62.1118 96.9288 62.1118 96.2159C62.1118 95.5029 62.6886 94.9243 63.3993 94.9243C64.1101 94.9255 64.6869 95.5029 64.6869 96.2159Z" fill="white"/>
<path d="M91.8031 96.2159C91.8031 96.9288 92.3799 97.5074 93.0906 97.5074C93.8014 97.5074 94.3782 96.9288 94.3782 96.2159C94.3782 95.5029 93.8014 94.9243 93.0906 94.9243C92.3799 94.9255 91.8031 95.5029 91.8031 96.2159Z" fill="white"/>
<path d="M79.5416 83.2943C79.5416 84.0072 78.9648 84.5858 78.254 84.5858C77.5432 84.5858 76.9665 84.0072 76.9665 83.2943C76.9665 82.5814 77.5432 82.0028 78.254 82.0028C78.9659 82.0028 79.5416 82.5814 79.5416 83.2943Z" fill="white"/>
<path d="M79.5416 107.508C79.5416 108.221 78.9648 108.8 78.254 108.8C77.5432 108.8 76.9665 108.221 76.9665 107.508C76.9665 106.795 77.5432 106.217 78.254 106.217C78.9659 106.217 79.5416 106.795 79.5416 107.508Z" fill="white"/>
<path d="M67.8448 108.698C68.2003 108.698 68.4886 108.409 68.4886 108.052C68.4886 107.695 68.2003 107.406 67.8448 107.406C67.4892 107.406 67.201 107.695 67.201 108.052C67.201 108.409 67.4892 108.698 67.8448 108.698Z" fill="white"/>
<path d="M59.5304 109.378C59.5304 109.735 59.242 110.024 58.8867 110.024C58.5313 110.024 58.2429 109.735 58.2429 109.378C58.2429 109.022 58.5313 108.733 58.8867 108.733C59.242 108.733 59.5304 109.022 59.5304 109.378Z" fill="white"/>
<path d="M49.8443 99.1153C50.1999 99.1153 50.4881 98.8262 50.4881 98.4695C50.4881 98.1129 50.1999 97.8238 49.8443 97.8238C49.4888 97.8238 49.2006 98.1129 49.2006 98.4695C49.2006 98.8262 49.4888 99.1153 49.8443 99.1153Z" fill="white"/>
<path d="M61.4534 84.0606C61.4534 84.417 61.165 84.7063 60.8096 84.7063C60.4542 84.7063 60.1658 84.417 60.1658 84.0606C60.1658 83.7041 60.4542 83.4148 60.8096 83.4148C61.1661 83.4148 61.4534 83.7041 61.4534 84.0606Z" fill="white"/>
<path d="M44.7613 86.2994C44.7613 86.6558 44.4729 86.9451 44.1175 86.9451C43.7621 86.9451 43.4737 86.6558 43.4737 86.2994C43.4737 85.9429 43.7621 85.6536 44.1175 85.6536C44.474 85.6536 44.7613 85.9429 44.7613 86.2994Z" fill="white"/>
<path d="M29.7893 89.9361C29.7893 90.2926 29.5009 90.5818 29.1455 90.5818C28.7901 90.5818 28.5017 90.2926 28.5017 89.9361C28.5017 89.5796 28.7901 89.2903 29.1455 89.2903C29.5009 89.2903 29.7893 89.5796 29.7893 89.9361Z" fill="white"/>
<path d="M39.3456 101.562C39.3456 101.918 39.0572 102.208 38.7018 102.208C38.3464 102.208 38.058 101.918 38.058 101.562C38.058 101.205 38.3464 100.916 38.7018 100.916C39.0572 100.916 39.3456 101.205 39.3456 101.562Z" fill="white"/>
<path d="M52.1014 111.599C52.457 111.599 52.7452 111.309 52.7452 110.953C52.7452 110.596 52.457 110.307 52.1014 110.307C51.7459 110.307 51.4576 110.596 51.4576 110.953C51.4576 111.309 51.7459 111.599 52.1014 111.599Z" fill="white"/>
<path d="M88.6455 108.698C89.0011 108.698 89.2893 108.409 89.2893 108.052C89.2893 107.695 89.0011 107.406 88.6455 107.406C88.29 107.406 88.0018 107.695 88.0018 108.052C88.0018 108.409 88.29 108.698 88.6455 108.698Z" fill="white"/>
<path d="M96.9599 109.378C96.9599 109.735 97.2483 110.024 97.6037 110.024C97.9591 110.024 98.2475 109.735 98.2475 109.378C98.2475 109.022 97.9591 108.733 97.6037 108.733C97.2483 108.733 96.9599 109.022 96.9599 109.378Z" fill="white"/>
<path d="M106.646 99.1153C107.002 99.1153 107.29 98.8262 107.29 98.4695C107.29 98.1129 107.002 97.8238 106.646 97.8238C106.29 97.8238 106.002 98.1129 106.002 98.4695C106.002 98.8262 106.29 99.1153 106.646 99.1153Z" fill="white"/>
<path d="M95.0357 84.0606C95.0357 84.417 95.3241 84.7063 95.6794 84.7063C96.0348 84.7063 96.3232 84.417 96.3232 84.0606C96.3232 83.7041 96.0348 83.4148 95.6794 83.4148C95.3241 83.4148 95.0357 83.7041 95.0357 84.0606Z" fill="white"/>
<path d="M111.727 86.2994C111.727 86.6558 112.015 86.9451 112.37 86.9451C112.726 86.9451 113.014 86.6558 113.014 86.2994C113.014 85.9429 112.726 85.6536 112.37 85.6536C112.015 85.6536 111.727 85.9429 111.727 86.2994Z" fill="white"/>
<path d="M126.698 89.9361C126.698 90.2926 126.987 90.5818 127.342 90.5818C127.698 90.5818 127.986 90.2926 127.986 89.9361C127.986 89.5796 127.698 89.2903 127.342 89.2903C126.987 89.2903 126.698 89.5796 126.698 89.9361Z" fill="white"/>
<path d="M117.145 101.562C117.145 101.918 117.433 102.208 117.789 102.208C118.144 102.208 118.432 101.918 118.432 101.562C118.432 101.205 118.144 100.916 117.789 100.916C117.433 100.916 117.145 101.205 117.145 101.562Z" fill="white"/>
<path d="M104.386 111.599C104.742 111.599 105.03 111.309 105.03 110.953C105.03 110.596 104.742 110.307 104.386 110.307C104.031 110.307 103.743 110.596 103.743 110.953C103.743 111.309 104.031 111.599 104.386 111.599Z" fill="white"/>
<path d="M77.595 71.2323C77.595 70.8758 77.8834 70.5866 78.2388 70.5866C78.5942 70.5866 78.8826 70.8758 78.8826 71.2323C78.8826 71.5888 78.5942 71.8781 78.2388 71.8781C77.8834 71.8781 77.595 71.5888 77.595 71.2323Z" fill="white"/>
<path d="M79.5416 34.928C79.5416 34.215 78.9648 33.6365 78.254 33.6365C77.5432 33.6365 76.9665 34.215 76.9665 34.928C76.9665 35.6409 77.5432 36.2195 78.254 36.2195C78.9659 36.2195 79.5416 35.6409 79.5416 34.928Z" fill="white"/>
<path d="M78.2599 25.4337C79.6821 25.4337 80.835 24.2772 80.835 22.8507C80.835 21.4241 79.6821 20.2677 78.2599 20.2677C76.8377 20.2677 75.6848 21.4241 75.6848 22.8507C75.6848 24.2772 76.8377 25.4337 78.2599 25.4337Z" fill="white"/>
</svg>
